<?xml version="1.0" encoding="UTF-8" standalone="no"?>
<!-- Generator: Adobe Illustrator 20.1.0, SVG Export Plug-In . SVG Version: 6.00 Build 0)  -->

<svg
   xmlns:dc="http://purl.org/dc/elements/1.1/"
   xmlns:cc="http://creativecommons.org/ns#"
   xmlns:rdf="http://www.w3.org/1999/02/22-rdf-syntax-ns#"
   xmlns:svg="http://www.w3.org/2000/svg"
   xmlns="http://www.w3.org/2000/svg"
   xmlns:sodipodi="http://sodipodi.sourceforge.net/DTD/sodipodi-0.dtd"
   xmlns:inkscape="http://www.inkscape.org/namespaces/inkscape"
   version="1.1"
   id="ae"
   x="0px"
   y="0px"
   viewBox="0 0 800 200"
   style="enable-background:new 0 0 800 200;"
   xml:space="preserve"
   sodipodi:docname="AllanEnemark-01.svg"
   inkscape:version="0.92.3 (2405546, 2018-03-11)"><metadata
   id="metadata43"><rdf:RDF><cc:Work
       rdf:about=""><dc:format>image/svg+xml</dc:format><dc:type
         rdf:resource="http://purl.org/dc/dcmitype/StillImage" /></cc:Work></rdf:RDF></metadata><defs
   id="defs41" /><sodipodi:namedview
   pagecolor="#ffffff"
   bordercolor="#666666"
   borderopacity="1"
   objecttolerance="10"
   gridtolerance="10"
   guidetolerance="10"
   inkscape:pageopacity="0"
   inkscape:pageshadow="2"
   inkscape:window-width="2494"
   inkscape:window-height="1181"
   id="namedview39"
   showgrid="false"
   inkscape:zoom="1.9943803"
   inkscape:cx="400"
   inkscape:cy="140.11271"
   inkscape:window-x="55"
   inkscape:window-y="27"
   inkscape:window-maximized="0"
   inkscape:current-layer="g34" />
<style
   type="text/css"
   id="style2">
	.st0{fill:#ECEAEA;stroke:#D3D3D3;stroke-width:0.75;stroke-miterlimit:10;}
	.st1{fill:none;stroke:#ECEAEA;stroke-width:0.75;stroke-miterlimit:10;}
</style>
<g
   id="g34">
	<path
   class="st0"
   d="M 0,0 V 200 H 800 V 0 Z m 316.9,59.7 h 61.8 v 4.9 h -56.1 v 36.8 h 52.7 v 4.9 h -52.7 v 40.4 h 56.7 v 4.9 h -62.4 z m -188.2,0 h 4.9 v 91.9 h -4.9 z m -70.9,0 H 64 l 36.3,91.9 h -6 L 82.6,122.1 h -44 l -11.7,29.5 h -6 z m 49.3,0 h 4.9 v 91.9 h -4.9 z m 61.1,93.4 c -7,0 -12.5,-1.5 -16.3,-4.6 -3.9,-3 -5.8,-7.7 -5.8,-14.1 0,-3.9 0.8,-7 2.3,-9.5 1.5,-2.5 3.5,-4.4 5.9,-5.8 2.4,-1.4 5,-2.4 7.8,-3 2.9,-0.6 5.6,-1 8.3,-1.3 l 7.6,-0.6 c 3.5,-0.3 6.3,-0.7 8.3,-1.2 2,-0.6 3.5,-1.3 4.6,-2.3 1,-1 1.7,-2.3 1.9,-3.8 0.2,-1.5 0.4,-3.5 0.4,-5.8 0,-1.8 -0.3,-3.5 -1,-5 -0.7,-1.5 -1.8,-2.9 -3.2,-4.1 -1.5,-1.2 -3.3,-2.1 -5.7,-2.8 -2.3,-0.7 -5.1,-1 -8.5,-1 -5.9,0 -10.7,1.5 -14.3,4.4 -3.6,2.9 -5.6,7.3 -6,13.3 h -4.9 c 0.3,-7.3 2.7,-12.8 7,-16.4 4.3,-3.6 10.5,-5.5 18.5,-5.5 8,0 13.8,1.6 17.4,4.7 3.6,3.1 5.5,7.2 5.5,12.3 v 38.5 c 0,0.9 0,1.9 0.1,2.8 0,0.9 0.2,1.8 0.5,2.6 0.3,0.8 0.7,1.4 1.3,1.9 0.6,0.5 1.5,0.7 2.6,0.7 0.9,0 2.1,-0.1 3.6,-0.4 v 4.1 c -1.3,0.3 -2.6,0.5 -4,0.5 -2,0 -3.5,-0.3 -4.7,-0.8 -1.2,-0.5 -2,-1.2 -2.6,-2.1 -0.6,-0.9 -1,-1.9 -1.2,-3 -0.2,-1.2 -0.3,-2.4 -0.3,-3.8 v -3.5 H 193 c -0.8,2 -1.9,3.8 -3.3,5.6 -1.5,1.8 -3.2,3.3 -5.3,4.7 -2.1,1.4 -4.5,2.4 -7.1,3.2 -3,0.7 -6,1.1 -9.1,1.1 z m 73.9,-65 c -3.8,0 -7.1,0.7 -10,2.1 -2.9,1.4 -5.4,3.3 -7.5,5.7 -2.1,2.4 -3.6,5.4 -4.7,8.7 -1.1,3.4 -1.6,7.1 -1.6,11.1 v 35.8 h -4.9 V 85.4 h 4.9 v 14.2 h 0.3 c 0.9,-2.5 2.1,-4.7 3.7,-6.6 1.6,-1.9 3.4,-3.6 5.5,-5 2.1,-1.4 4.4,-2.4 6.9,-3.1 2.5,-0.7 5,-1 7.6,-1 3.9,0 7.1,0.5 9.8,1.4 2.7,0.9 4.9,2.2 6.6,3.7 1.7,1.5 3.1,3.3 4.1,5.2 1,1.9 1.7,3.9 2.1,5.9 0.4,2 0.7,3.9 0.8,5.7 0.1,1.8 0.1,3.5 0.1,4.8 v 40.9 h -4.9 v -41.8 c 0,-1.6 -0.1,-3.7 -0.4,-6.2 -0.3,-2.5 -1,-4.9 -2.3,-7.1 -1.2,-2.3 -3.1,-4.2 -5.7,-5.9 -2.4,-1.6 -5.9,-2.4 -10.4,-2.4 z m 198.3,63.4 h -4.9 v -41.8 c 0,-1.6 -0.1,-3.7 -0.4,-6.2 -0.3,-2.5 -1,-4.9 -2.3,-7.1 -1.2,-2.3 -3.1,-4.2 -5.7,-5.9 -2.5,-1.6 -6,-2.4 -10.5,-2.4 -3.8,0 -7.1,0.7 -10,2.1 -2.9,1.4 -5.4,3.3 -7.5,5.7 -2.1,2.4 -3.6,5.4 -4.7,8.7 -1.1,3.4 -1.6,7.1 -1.6,11.1 v 35.8 H 388 V 85.4 h 4.9 v 14.2 h 0.3 c 0.9,-2.5 2.1,-4.7 3.7,-6.6 1.6,-1.9 3.4,-3.6 5.5,-5 2.1,-1.4 4.4,-2.4 6.9,-3.1 2.5,-0.7 5,-1 7.6,-1 3.9,0 7.1,0.5 9.8,1.4 2.7,0.9 4.9,2.2 6.6,3.7 1.7,1.5 3.1,3.3 4.1,5.2 1,1.9 1.7,3.9 2.1,5.9 0.4,2 0.7,3.9 0.8,5.7 0.1,1.8 0.1,3.5 0.1,4.8 z m 69.8,-33.7 c 0,0.6 0.3,1.4 -0.1,1.4 h -53.5 v 0.8 c 0,3.9 0.5,7.5 1.5,11.1 1,3.5 2.6,6.6 4.6,9.3 2,2.7 4.6,4.8 7.6,6.3 3.1,1.5 6.6,2.3 10.6,2.3 6.6,0 11.9,-1.7 15.7,-5.2 3.9,-3.5 6.5,-8.3 8,-14.5 h 4.9 c -1.5,7.7 -4.6,13.6 -9.5,17.8 -4.8,4.1 -11.3,6.2 -19.2,6.2 -4.9,0 -9.2,-0.9 -12.8,-2.6 -3.6,-1.8 -6.7,-4.2 -9.1,-7.2 -2.4,-3 -4.3,-6.6 -5.5,-10.8 -1.2,-4.2 -1.8,-8.6 -1.8,-13.4 0,-4.6 0.6,-9.1 1.9,-13.3 1.2,-4.2 3.1,-8 5.6,-11.2 2.5,-3.2 5.6,-5.8 9.3,-7.7 3.7,-1.9 8.1,-2.9 13.2,-2.9 4.6,0 8.7,0.9 12.3,2.6 3.6,1.7 6.5,4.1 8.9,7 2.4,3 4.2,6.4 5.5,10.3 1.2,3.9 1.9,8.1 1.9,12.5 0.1,0.1 0,0.6 0,1.2 z m 82.6,-29.2 c -1.8,-0.3 -3.1,-0.5 -4.1,-0.5 -3,0 -5.8,0.5 -8.3,1.5 -2.5,1 -4.7,2.6 -6.6,4.6 -1.8,2.1 -3.3,4.6 -4.3,7.7 -1,3 -1.5,6.5 -1.5,10.5 v 39.1 h -4.9 v -45.2 c 0,-4.1 -0.6,-7.4 -1.9,-9.8 -1.2,-2.4 -2.7,-4.3 -4.4,-5.5 -1.7,-1.2 -3.4,-2 -5.1,-2.3 -1.8,-0.3 -3.2,-0.5 -4.2,-0.5 -2.3,0 -4.7,0.5 -7.2,1.4 -2.5,0.9 -4.8,2.4 -6.8,4.4 -2.1,2 -3.7,4.5 -5,7.6 -1.3,3.1 -1.9,6.7 -1.9,10.9 v 39.1 h -4.9 V 85.4 h 4.9 v 13.5 h 0.3 c 0.5,-2.1 1.4,-4 2.7,-5.9 1.3,-1.8 2.9,-3.5 4.7,-4.8 1.8,-1.4 3.9,-2.4 6.2,-3.2 2.3,-0.8 4.7,-1.2 7.1,-1.2 3.2,0 5.9,0.4 8.2,1.2 2.3,0.8 4.3,1.9 5.9,3.2 1.6,1.3 2.9,2.8 3.9,4.5 0.9,1.7 1.6,3.4 1.9,5.1 h 0.3 c 2,-4.6 4.6,-8.1 7.9,-10.5 3.3,-2.4 7.7,-3.5 13.1,-3.5 3,0 5.8,0.5 8.3,1.4 2.5,0.9 4.7,2.3 6.6,4.1 1.8,1.8 3.3,4.2 4.3,7 1,2.8 1.5,6.2 1.5,10 v 45.2 h -4.9 v -45.2 c 0,-4.2 -0.6,-7.5 -1.9,-9.9 -1.3,-2.4 -2.8,-4.2 -4.6,-5.5 -1.8,-1.3 -3.6,-2 -5.3,-2.3 z m 66.1,60.1 c -2.1,1.4 -4.5,2.4 -7.1,3.2 -2.7,0.8 -5.6,1.2 -8.7,1.2 -7,0 -12.5,-1.5 -16.3,-4.6 -3.8,-3.1 -5.8,-7.7 -5.8,-14.1 0,-3.9 0.8,-7 2.3,-9.5 1.5,-2.5 3.5,-4.4 5.9,-5.8 2.4,-1.4 5,-2.4 7.8,-3 2.9,-0.6 5.6,-1 8.3,-1.3 l 7.6,-0.6 c 3.5,-0.3 6.3,-0.7 8.3,-1.2 2,-0.6 3.5,-1.3 4.6,-2.3 1,-1 1.7,-2.3 1.9,-3.8 0.3,-1.5 0.4,-3.5 0.4,-5.8 0,-1.8 -0.3,-3.5 -1,-5 -0.7,-1.5 -1.8,-2.9 -3.2,-4.1 -1.5,-1.2 -3.3,-2.1 -5.7,-2.8 -2.3,-0.7 -5.1,-1 -8.5,-1 -5.9,0 -10.7,1.5 -14.3,4.4 -3.6,2.9 0.0133,13.3 -6,13.3 h -4.9 c 0.3,-7.3 2.7,-12.8 7,-16.4 4.3,-3.6 10.5,-5.5 18.5,-5.5 8,0 13.8,1.6 17.4,4.7 3.6,3.1 5.5,7.2 5.5,12.3 v 38.5 c 0,0.9 0,1.9 0.1,2.8 0,0.9 0.2,1.8 0.5,2.6 0.3,0.8 0.7,1.4 1.3,1.9 0.6,0.5 1.5,0.7 2.6,0.7 0.9,0 3.6,-1.92971 3.6,-0.4 v 4.1 c -1.3,0.3 -2.6,0.5 -4,0.5 -2,0 -3.5,-0.3 -4.7,-0.8 -1.2,-0.5 -2,-1.2 -2.6,-2.1 -0.6,-0.9 -1,-1.9 -1.2,-3 -0.2,-1.2 -0.3,-2.4 -0.3,-3.8 v -3.5 h -0.3 c -0.8,2 -1.9,3.8 -3.3,5.6 -1.8,1.7 -3.6,3.2 -5.7,4.6 z m 36.4,-44.6 c -0.6,1.5 -1.1,3.1 -1.4,4.9 -0.3,1.8 -0.6,3.9 -0.6,6.4 v 36.2 h -4.9 V 85.4 h 4.9 v 14.7 h 0.4 c 0.6,-2.1 1.7,-4.2 3.3,-6 1.6,-1.9 3.5,-3.5 5.8,-4.9 2.3,-1.4 4.8,-2.4 7.6,-3.2 2.8,-0.7 5.7,-1 8.7,-1 v 4.9 c -2.6,-0.3 -5.5,-0.1 -8.8,0.8 -3.3,0.9 -6.5,2.7 -9.5,5.7 -1.2,1.3 -2.3,2.5 -3.2,3.7 -1,1.2 -1.7,2.5 -2.3,4 z m 77.1,47.4 -28.2,-37.7 -15.1,12.7 v 25 h -4.9 V 59.7 h 4.9 v 60.9 L 770,85.4 h 7.1 l -28.9,24.7 31,41.4 z"
   id="path28"
   inkscape:connector-curvature="0"
   style="fill:#eceaea;stroke:#d3d3d3;stroke-width:0.75;stroke-miterlimit:10"
   sodipodi:nodetypes="cccccccccccccccccccccccccccccccccccccscssscccccsssccssccssssscsssccssscscccscsssscsccccccssssssssssccssccsccssccssscsccccccssssssssssccsccscscsccccscssscsssscccscssccsccscscsscssccccccccsssscccssscssccssscscsssssccccccssccssccssssscsssccssscsccccssscccccccscccsccccccccccccccc" /><path
   class="st0"
   d="m 498.9,96.2 c -2,-2.4 -4.5,-4.4 -7.4,-5.9 -2.9,-1.5 -6.2,-2.2 -9.9,-2.2 -4,0 -7.4,0.8 -10.4,2.3 -3,1.5 -5.5,3.5 -7.6,5.9 -2.1,2.4 -3.7,5.3 -4.8,8.6 -1.1,3.3 -1.8,6.6 -2.1,10 h 48.5 c -0.2,-3.6 -0.8,-7 -1.8,-10.2 -1,-3.3 -2.5,-6.1 -4.5,-8.5 z"
   id="path4"
   inkscape:connector-curvature="0"
   style="fill:#eceaea;stroke:#d3d3d3;stroke-width:0.75;stroke-miterlimit:10"
   sodipodi:nodetypes="sssssscccs" />
	
	
	
	
	
	
	
	
	<path
   class="st0"
   d="m 189,138.9 c 1.7,-2.6 2.8,-5.1 3.3,-7.6 0.5,-2.4 0.7,-4.1 0.7,-5 V 114 c -1.2,1.5 -3,2.4 -5.5,3 -2.5,0.6 -5.2,0.9 -8.2,1.2 l -8.2,0.8 c -2.4,0.3 -4.8,0.6 -7.2,1.1 -2.4,0.5 -4.6,1.3 -6.5,2.4 -1.9,1.1 -3.5,2.6 -4.7,4.6 -1.2,1.9 -1.8,4.4 -1.8,7.5 0,4.9 1.5,8.5 4.6,10.9 3.1,2.4 7.3,3.5 12.7,3.5 5.6,0 10,-1 13.3,-3 3.3,-2.2 5.8,-4.5 7.5,-7.1 z"
   id="path22"
   inkscape:connector-curvature="0"
   style="fill:#eceaea;stroke:#d3d3d3;stroke-width:0.75;stroke-miterlimit:10"
   sodipodi:nodetypes="scscsccsscssscs" />
	
	<polygon
   class="st0"
   points="40.4,77.2 80.8,77.2 61.1,25.2 60.9,25.2 "
   id="polygon26"
   transform="translate(0,40)"
   style="fill:#eceaea;stroke:#d3d3d3;stroke-width:0.75;stroke-miterlimit:10" />
	
	<path
   class="st0"
   d="m 667.9,114 c -1.2,1.5 -3,2.4 -5.5,3 -2.5,0.6 -5.2,0.9 -8.2,1.2 L 646,119 c -2.4,0.3 -4.8,0.6 -7.2,1.1 -2.4,0.5 -4.6,1.3 -6.5,2.4 -1.9,1.1 -3.5,2.6 -4.7,4.6 -1.2,1.9 -1.8,4.4 -1.8,7.5 0,4.9 1.5,8.5 4.6,10.9 3.1,2.4 7.3,3.5 12.7,3.5 5.6,0 10,-1 13.3,-3 3.3,-2 5.7,-4.3 7.5,-6.9 1.7,-2.6 2.8,-5.1 3.3,-7.6 0.5,-2.4 0.7,-4.1 0.7,-5 z"
   id="path30"
   inkscape:connector-curvature="0"
   style="fill:#eceaea;stroke:#d3d3d3;stroke-width:0.75;stroke-miterlimit:10"
   sodipodi:nodetypes="csccsscssssccsc" />
	
</g>
<rect
   class="st1"
   width="800"
   height="200"
   id="rect36" />
</svg>