<?xml version="1.0" encoding="utf-8"?>
<!-- Generator: Adobe Illustrator 20.1.0, SVG Export Plug-In . SVG Version: 6.00 Build 0)  -->
<svg version="1.1" id="ae" xmlns="http://www.w3.org/2000/svg" xmlns:xlink="http://www.w3.org/1999/xlink" x="0px" y="0px"
	 viewBox="0 0 800 200" style="enable-background:new 0 0 800 200;" xml:space="preserve">
<style type="text/css">
	.st0{fill:#ECEAEA;stroke:#D3D3D3;stroke-width:0.75;stroke-miterlimit:10;}
	.st1{fill:none;stroke:#ECEAEA;stroke-width:0.75;stroke-miterlimit:10;}
</style>
<g>
	<path class="st0" d="M498.9,56.2c-2-2.4-4.5-4.4-7.4-5.9s-6.2-2.2-9.9-2.2c-4,0-7.4,0.8-10.4,2.3s-5.5,3.5-7.6,5.9
		s-3.7,5.3-4.8,8.6c-1.1,3.3-1.8,6.6-2.1,10h48.5c-0.2-3.6-0.8-7-1.8-10.2C502.4,61.4,500.9,58.6,498.9,56.2z"/>
	<path class="st0" d="M554.4,145.1c0.6-1.4,0.9-3,0.9-4.9c0-1.8-0.3-3.3-1-4.6s-1.6-2.3-2.7-3.1c-1.1-0.8-2.4-1.4-3.9-1.7
		c-1.5-0.4-3-0.5-4.6-0.5h-16.9v20.8h16.9c1.7,0,3.3-0.2,4.8-0.6c1.5-0.4,2.8-1.1,3.8-2C552.9,147.6,553.8,146.5,554.4,145.1z"/>
	<path class="st0" d="M398.3,146.9c-1-1.4-2.3-2.4-3.9-3.2s-3.4-1.2-5.5-1.2s-3.9,0.4-5.4,1.3c-1.5,0.8-2.8,2-3.8,3.3
		c-1,1.4-1.8,2.9-2.3,4.7s-0.8,3.5-0.8,5.4c0,2,0.3,3.9,0.8,5.7s1.3,3.4,2.3,4.7s2.3,2.4,3.9,3.2c1.5,0.8,3.3,1.2,5.3,1.2
		c2.1,0,3.9-0.4,5.5-1.2s2.9-1.9,3.9-3.3c1-1.4,1.8-2.9,2.3-4.7s0.8-3.6,0.8-5.6c0-1.9-0.3-3.7-0.8-5.5
		C400.2,149.8,399.4,148.2,398.3,146.9z"/>
	<path class="st0" d="M587.6,146.6c-1-1.3-2.3-2.3-3.8-3c-1.5-0.8-3.2-1.1-5.1-1.1c-2,0-3.8,0.4-5.4,1.2c-1.6,0.8-2.9,1.8-3.9,3.1
		c-1.1,1.3-1.9,2.7-2.5,4.4s-0.9,3.4-1.1,5.2h25.1c-0.1-1.9-0.4-3.6-0.9-5.3C589.5,149.4,588.7,147.9,587.6,146.6z"/>
	<path class="st0" d="M320.8,146.6c-1-1.3-2.3-2.3-3.8-3c-1.5-0.8-3.2-1.1-5.1-1.1c-2,0-3.8,0.4-5.4,1.2s-2.9,1.8-3.9,3.1
		c-1.1,1.3-1.9,2.7-2.5,4.4s-0.9,3.4-1.1,5.2h25.1c-0.1-1.9-0.4-3.6-0.9-5.3C322.6,149.4,321.9,147.9,320.8,146.6z"/>
	<path class="st0" d="M654.2,146.6c-1-1.3-2.3-2.3-3.8-3c-1.5-0.8-3.2-1.1-5.1-1.1c-2,0-3.8,0.4-5.4,1.2c-1.6,0.8-2.9,1.8-3.9,3.1
		c-1.1,1.3-1.9,2.7-2.5,4.4s-0.9,3.4-1.1,5.2h25.1c-0.1-1.9-0.4-3.6-0.9-5.3C656,149.4,655.2,147.9,654.2,146.6z"/>
	<path class="st0" d="M100,147.3c-1.1-1.5-2.5-2.6-4.1-3.5s-3.5-1.3-5.7-1.3s-4,0.4-5.7,1.3c-1.6,0.9-3,2-4.1,3.5s-2,3.1-2.5,5
		c-0.6,1.9-0.9,3.8-0.9,5.9c0,2,0.3,4,0.9,5.9s1.4,3.6,2.5,5c1.1,1.5,2.5,2.6,4.1,3.5s3.5,1.3,5.7,1.3s4-0.4,5.7-1.3
		c1.6-0.9,3-2,4.1-3.5s2-3.1,2.5-5c0.6-1.9,0.9-3.8,0.9-5.9c0-2-0.3-4-0.9-5.9C102,150.4,101.1,148.7,100,147.3z"/>
	<path class="st0" d="M50,134.3c-0.8-1.1-1.9-2.1-3.4-2.9c-1.4-0.8-3.4-1.2-5.8-1.2h-17v21.3h16.7c2.1,0,3.9-0.3,5.4-1
		c1.5-0.6,2.7-1.5,3.6-2.5c0.9-1,1.5-2.2,1.9-3.4s0.6-2.5,0.6-3.7c0-0.9-0.1-1.9-0.4-3.2C51.4,136.6,50.8,135.5,50,134.3z"/>
	<path class="st0" d="M285.2,137.3c-1-1.6-2.2-2.8-3.6-3.7s-2.8-1.6-4.2-2.1c-1.4-0.5-2.9-0.8-4.3-1s-2.7-0.2-3.9-0.2H257v42.5h12.8
		c2.2,0,4.4-0.3,6.7-1c2.2-0.7,4.3-1.8,6.1-3.5c1.8-1.6,3.3-3.8,4.4-6.5s1.7-6.2,1.7-10.3c0-3.2-0.3-6-1-8.3
		C287.1,140.8,286.3,138.9,285.2,137.3z"/>
	<path class="st0" d="M189,98.9c1.7-2.6,2.8-5.1,3.3-7.6c0.5-2.4,0.7-4.1,0.7-5V74c-1.2,1.5-3,2.4-5.5,3s-5.2,0.9-8.2,1.2l-8.2,0.8
		c-2.4,0.3-4.8,0.6-7.2,1.1s-4.6,1.3-6.5,2.4s-3.5,2.6-4.7,4.6c-1.2,1.9-1.8,4.4-1.8,7.5c0,4.9,1.5,8.5,4.6,10.9s7.3,3.5,12.7,3.5
		c5.6,0,10-1,13.3-3C184.8,103.8,187.3,101.5,189,98.9z"/>
	<path class="st0" d="M135.1,147.4c-1-1.5-2.3-2.7-4-3.6c-1.6-0.9-3.5-1.3-5.7-1.3c-2.3,0-4.2,0.4-5.8,1.3c-1.6,0.9-2.9,2-4,3.5
		c-1,1.5-1.8,3.2-2.3,5.1c-0.5,1.9-0.7,3.9-0.7,5.9s0.3,3.9,0.8,5.8c0.5,1.9,1.3,3.6,2.3,5c1,1.5,2.4,2.6,4,3.5s3.5,1.3,5.7,1.3
		s4-0.4,5.6-1.3c1.6-0.9,2.9-2.1,3.9-3.5c1-1.5,1.8-3.1,2.3-5s0.8-3.8,0.8-5.8s-0.3-3.9-0.8-5.8
		C136.9,150.5,136.2,148.8,135.1,147.4z"/>
	<polygon class="st0" points="61.1,25.2 60.9,25.2 40.4,77.2 80.8,77.2 	"/>
	<path class="st0" d="M0,0v200h800V0H0z M316.9,19.7h61.8v4.9h-56.1v36.8h52.7v4.9h-52.7v40.4h56.7v4.9h-62.4V19.7z M128.7,19.7h4.9
		v91.9h-4.9V19.7z M57.8,19.7H64l36.3,91.9h-6L82.6,82.1h-44l-11.7,29.5h-6L57.8,19.7z M51.1,150.7c-2.6,2.3-6.3,3.4-11,3.4H23.8
		v21.2h-2.9v-47.5h20.2c1.3,0,2.8,0.2,4.4,0.5c1.6,0.3,3.1,0.9,4.5,1.9s2.6,2.3,3.5,4.1s1.4,4,1.4,6.9
		C55,145.2,53.7,148.5,51.1,150.7z M74.2,143.4c-1.3-0.2-2.9,0-4.6,0.4s-3.3,1.4-4.9,2.9c-0.6,0.7-1.2,1.3-1.6,1.9
		c-0.5,0.6-0.9,1.3-1.2,2.1s-0.6,1.6-0.7,2.5c-0.2,0.9-0.3,2-0.3,3.3v18.7h-2.5V141h2.5v7.6h0.2c0.3-1.1,0.9-2.2,1.7-3.1
		c0.8-1,1.8-1.8,3-2.5c1.2-0.7,2.5-1.3,3.9-1.6c1.4-0.4,2.9-0.5,4.5-0.5C74.2,140.9,74.2,143.4,74.2,143.4z M104.9,165.1
		c-0.7,2.2-1.7,4.1-3,5.7c-1.3,1.6-3,2.9-4.9,3.9c-2,1-4.2,1.4-6.7,1.4s-4.8-0.5-6.7-1.4c-2-1-3.6-2.2-4.9-3.9
		c-1.3-1.6-2.3-3.5-3-5.7s-1-4.5-1-6.9s0.3-4.7,1-6.9s1.7-4,3-5.7c1.3-1.6,3-2.9,4.9-3.9c2-1,4.2-1.4,6.7-1.4s4.8,0.5,6.7,1.4
		c2,1,3.6,2.3,4.9,3.9c1.3,1.6,2.3,3.5,3,5.7s1,4.4,1,6.9C105.9,160.6,105.6,162.9,104.9,165.1z M107.1,19.7h4.9v91.9h-4.9V19.7z
		 M140.8,175.3h-2.5V168h-0.1c-1.4,2.7-3.2,4.7-5.3,6.1s-4.7,2-7.8,2c-2.6,0-4.8-0.5-6.7-1.5c-1.9-1-3.4-2.3-4.6-3.9
		c-1.2-1.6-2.1-3.5-2.7-5.7s-0.9-4.4-0.9-6.8c0-2.5,0.3-4.9,0.9-7.1c0.6-2.2,1.6-4.1,2.8-5.7c1.3-1.6,2.8-2.9,4.8-3.8
		c1.9-0.9,4.1-1.4,6.7-1.4c1.4,0,2.7,0.2,4.1,0.6c1.3,0.4,2.6,0.9,3.7,1.6c1.1,0.7,2.1,1.6,3,2.7c0.8,1.1,1.5,2.3,1.9,3.6h0.1v-21
		h2.5v47.6L140.8,175.3L140.8,175.3z M175.9,175.3h-2.5V168h-0.1c-0.4,1.3-1.1,2.4-1.9,3.4c-0.8,1-1.8,1.9-2.9,2.6
		c-1.1,0.7-2.3,1.2-3.6,1.6c-1.3,0.4-2.6,0.5-3.9,0.5c-2,0-3.7-0.2-5.1-0.7c-1.4-0.5-2.5-1.1-3.4-1.9c-0.9-0.8-1.6-1.7-2.1-2.7
		s-0.9-2-1.1-3c-0.2-1-0.4-2-0.4-3s-0.1-1.8-0.1-2.5v-21.2h2.5v21.6c0,0.9,0.1,2,0.2,3.2c0.1,1.3,0.5,2.5,1.2,3.7
		c0.6,1.2,1.6,2.2,2.9,3c1.3,0.8,3.1,1.3,5.5,1.3c1.9,0,3.6-0.4,5.2-1.1c1.5-0.7,2.8-1.7,3.9-3c1.1-1.3,1.9-2.8,2.4-4.5
		c0.6-1.8,0.8-3.7,0.8-5.8V141h2.5L175.9,175.3L175.9,175.3z M168.2,113.1c-7,0-12.5-1.5-16.3-4.6c-3.9-3-5.8-7.7-5.8-14.1
		c0-3.9,0.8-7,2.3-9.5s3.5-4.4,5.9-5.8s5-2.4,7.8-3c2.9-0.6,5.6-1,8.3-1.3l7.6-0.6c3.5-0.3,6.3-0.7,8.3-1.2c2-0.6,3.5-1.3,4.6-2.3
		c1-1,1.7-2.3,1.9-3.8s0.4-3.5,0.4-5.8c0-1.8-0.3-3.5-1-5s-1.8-2.9-3.2-4.1c-1.5-1.2-3.3-2.1-5.7-2.8c-2.3-0.7-5.1-1-8.5-1
		c-5.9,0-10.7,1.5-14.3,4.4s-5.6,7.3-6,13.3h-4.9c0.3-7.3,2.7-12.8,7-16.4c4.3-3.6,10.5-5.5,18.5-5.5s13.8,1.6,17.4,4.7
		c3.6,3.1,5.5,7.2,5.5,12.3v38.5c0,0.9,0,1.9,0.1,2.8c0,0.9,0.2,1.8,0.5,2.6s0.7,1.4,1.3,1.9s1.5,0.7,2.6,0.7c0.9,0,2.1-0.1,3.6-0.4
		v4.1c-1.3,0.3-2.6,0.5-4,0.5c-2,0-3.5-0.3-4.7-0.8s-2-1.2-2.6-2.1s-1-1.9-1.2-3c-0.2-1.2-0.3-2.4-0.3-3.8v-3.5H193
		c-0.8,2-1.9,3.8-3.3,5.6c-1.5,1.8-3.2,3.3-5.3,4.7c-2.1,1.4-4.5,2.4-7.1,3.2C174.3,112.7,171.3,113.1,168.2,113.1z M210.3,168.7
		c-0.8,1.6-1.9,2.9-3.2,4s-2.8,1.9-4.4,2.5c-1.6,0.6-3.4,0.9-5.2,0.9c-2.8,0-5.2-0.5-7.2-1.5s-3.6-2.3-4.9-4
		c-1.3-1.7-2.2-3.6-2.8-5.8s-0.9-4.5-0.9-6.9s0.3-4.7,1-6.8s1.7-4,3-5.6s3-2.9,4.9-3.8c2-0.9,4.2-1.4,6.7-1.4c1.9,0,3.6,0.2,5.2,0.7
		c1.6,0.5,3.1,1.2,4.3,2.1c1.3,0.9,2.3,2.1,3.1,3.6c0.8,1.4,1.3,3.1,1.5,5h-2.5c-0.1-1.5-0.5-2.8-1.2-4c-0.6-1.2-1.5-2.1-2.5-2.9
		c-1-0.8-2.2-1.3-3.6-1.7c-1.4-0.4-2.8-0.6-4.4-0.6c-2.1,0-4,0.4-5.7,1.3c-1.6,0.9-3,2-4.1,3.5c-1.1,1.4-2,3.1-2.5,4.9
		c-0.6,1.8-0.9,3.7-0.9,5.7c0,2.3,0.3,4.4,0.8,6.4s1.4,3.6,2.5,5.1c1.1,1.4,2.5,2.6,4.1,3.4c1.6,0.8,3.6,1.2,5.8,1.2
		c1.6,0,3.1-0.3,4.4-0.8c1.4-0.5,2.6-1.3,3.6-2.2s1.9-2.1,2.6-3.4c0.7-1.3,1.1-2.7,1.3-4.3h2.5C211.7,165.3,211.2,167.1,210.3,168.7
		z M230.5,143.3H223v23.9c0,1.4,0.2,2.5,0.5,3.3s0.8,1.4,1.4,1.8c0.6,0.4,1.4,0.7,2.3,0.8c0.9,0.1,2,0.1,3.2,0.1v2.2
		c-1.3,0.1-2.5,0.1-3.8,0c-1.2-0.1-2.3-0.4-3.2-1s-1.7-1.4-2.2-2.5c-0.6-1.1-0.8-2.6-0.7-4.6v-23.9h-6.3v-2.2h6.3v-10.6h2.5v10.6
		h7.5V143.3z M242.1,48.1c-3.8,0-7.1,0.7-10,2.1c-2.9,1.4-5.4,3.3-7.5,5.7s-3.6,5.4-4.7,8.7c-1.1,3.4-1.6,7.1-1.6,11.1v35.8h-4.9
		V45.4h4.9v14.2h0.3c0.9-2.5,2.1-4.7,3.7-6.6c1.6-1.9,3.4-3.6,5.5-5s4.4-2.4,6.9-3.1c2.5-0.7,5-1,7.6-1c3.9,0,7.1,0.5,9.8,1.4
		s4.9,2.2,6.6,3.7s3.1,3.3,4.1,5.2s1.7,3.9,2.1,5.9s0.7,3.9,0.8,5.7c0.1,1.8,0.1,3.5,0.1,4.8v40.9h-4.9V69.7c0-1.6-0.1-3.7-0.4-6.2
		c-0.3-2.5-1-4.9-2.3-7.1c-1.2-2.3-3.1-4.2-5.7-5.9C250.1,48.9,246.6,48.1,242.1,48.1z M290.3,160.9c-0.9,2.9-2.2,5.4-4,7.6
		c-1.8,2.1-4.1,3.8-6.9,5s-6.1,1.8-9.9,1.8h-15.4v-47.5h15.6c4.3,0,7.8,0.7,10.6,2c2.8,1.3,5.1,3.1,6.8,5.3c1.7,2.2,2.9,4.7,3.6,7.6
		c0.7,2.8,1,5.8,1,8.8C291.6,154.8,291.2,158,290.3,160.9z M326.7,157.8c0,0.3,0,0.5,0,0.7H299v0.4c0,2,0.3,3.9,0.8,5.7
		s1.3,3.4,2.4,4.8c1,1.4,2.4,2.5,3.9,3.3c1.6,0.8,3.4,1.2,5.5,1.2c3.4,0,6.1-0.9,8.1-2.7s3.4-4.3,4.1-7.5h2.5
		c-0.8,4-2.4,7.1-4.9,9.2c-2.5,2.1-5.8,3.2-9.9,3.2c-2.5,0-4.7-0.5-6.6-1.4s-3.5-2.2-4.7-3.7c-1.3-1.6-2.2-3.4-2.8-5.6
		c-0.6-2.2-0.9-4.5-0.9-7c0-2.4,0.3-4.7,1-6.9c0.6-2.2,1.6-4.1,2.9-5.8s2.9-3,4.8-4s4.2-1.5,6.8-1.5c2.4,0,4.5,0.4,6.4,1.3
		c1.8,0.9,3.4,2.1,4.6,3.6s2.2,3.3,2.8,5.3c0.6,2,1,4.2,1,6.5C326.7,157.3,326.7,157.5,326.7,157.8z M357.2,171.2
		c-0.8,1.2-1.9,2.2-3.2,2.9c-1.3,0.7-2.7,1.2-4.3,1.5c-1.6,0.3-3.1,0.4-4.6,0.4c-2,0-3.8-0.3-5.4-0.8c-1.7-0.5-3.1-1.3-4.4-2.3
		c-1.2-1-2.2-2.3-2.9-3.8c-0.7-1.5-1.1-3.3-1.1-5.3h2.5c0.1,1.6,0.4,3,1.1,4.2c0.6,1.2,1.4,2.3,2.4,3.1c1,0.9,2.2,1.5,3.5,2
		c1.3,0.4,2.8,0.7,4.3,0.7c1.1,0,2.3-0.1,3.6-0.3c1.3-0.2,2.4-0.6,3.5-1.1s2-1.3,2.7-2.2c0.7-1,1.1-2.2,1.1-3.6
		c0-1.9-0.6-3.3-1.7-4.3c-1.2-1-2.6-1.7-4.4-2.3c-1.8-0.5-3.6-1-5.7-1.3c-2-0.3-3.9-0.8-5.7-1.5c-1.8-0.7-3.2-1.6-4.4-2.8
		c-1.2-1.2-1.7-3-1.7-5.4c0-1.7,0.4-3.1,1.1-4.2c0.8-1.1,1.7-2,2.9-2.7c1.2-0.7,2.5-1.1,4-1.4c1.5-0.3,2.9-0.4,4.4-0.4
		c1.8,0,3.4,0.2,5,0.6c1.6,0.4,2.9,1,4,1.9s2,2,2.7,3.4c0.6,1.4,1,3,1,5H355c0-1.6-0.3-2.9-0.8-4s-1.2-2-2.1-2.7s-2-1.2-3.2-1.5
		s-2.6-0.5-4-0.5c-1.2,0-2.3,0.1-3.5,0.3s-2.2,0.6-3.2,1.1c-0.9,0.5-1.7,1.2-2.3,2.1c-0.6,0.8-0.9,1.9-0.9,3.1c0,1.4,0.3,2.5,1,3.3
		s1.5,1.5,2.6,2s2.3,0.9,3.7,1.2c1.4,0.3,2.7,0.6,4.1,0.9c1.7,0.3,3.3,0.7,4.8,1.1c1.5,0.4,2.8,1,3.9,1.7s1.9,1.7,2.6,2.8
		c0.6,1.2,0.9,2.6,0.9,4.4C358.4,168.5,358,170,357.2,171.2z M367.7,175.3h-2.5v-34.2h2.5V175.3z M367.7,134.6h-2.5v-6.9h2.5V134.6z
		 M404,173.5c0,1.9-0.2,3.8-0.7,5.6c-0.4,1.8-1.2,3.4-2.3,4.8c-1.1,1.4-2.6,2.5-4.5,3.3s-4.3,1.2-7.2,1.2c-1.8,0-3.5-0.2-5.1-0.6
		c-1.6-0.4-3-1-4.2-1.8s-2.2-1.9-2.9-3.3c-0.7-1.4-1.1-3-1.2-5h2.5c0.1,1.5,0.5,2.8,1.1,3.9c0.6,1.1,1.4,1.9,2.4,2.6
		c1,0.7,2.1,1.2,3.4,1.5c1.2,0.3,2.6,0.5,4,0.5c2.4,0,4.3-0.4,5.9-1.1c1.6-0.7,2.8-1.6,3.8-2.8c0.9-1.1,1.6-2.4,2-3.9
		c0.4-1.4,0.6-2.9,0.6-4.4v-7.9h-0.2c-1.2,2.5-2.8,4.5-4.9,5.8s-4.5,2-7.5,2c-2.5,0-4.7-0.4-6.5-1.3c-1.8-0.9-3.4-2.1-4.6-3.6
		s-2.1-3.3-2.7-5.4c-0.6-2-0.9-4.3-0.9-6.7c0-2.3,0.3-4.4,1-6.5c0.6-2,1.6-3.8,2.8-5.4c1.2-1.5,2.8-2.8,4.6-3.7
		c1.8-0.9,4-1.4,6.4-1.4c2.7,0,5.2,0.7,7.5,2.1c2.3,1.4,3.9,3.3,4.9,5.9h0.1v-7.1h2.5L404,173.5L404,173.5z M438.6,175.3H436v-21.6
		c0-0.8-0.1-1.9-0.2-3.2s-0.5-2.5-1.2-3.7c-0.6-1.2-1.6-2.2-2.9-3s-3.1-1.3-5.4-1.3c-2,0-3.7,0.4-5.2,1.1c-1.5,0.7-2.8,1.7-3.9,3
		s-1.9,2.8-2.4,4.5c-0.6,1.8-0.8,3.7-0.8,5.8v18.5h-2.5v-34.2h2.5v7.3h0.1c0.4-1.3,1.1-2.4,1.9-3.4s1.8-1.9,2.9-2.6
		c1.1-0.7,2.3-1.2,3.6-1.6c1.3-0.4,2.6-0.5,3.9-0.5c2,0,3.7,0.2,5.1,0.7s2.5,1.1,3.4,1.9c0.9,0.8,1.6,1.7,2.1,2.7s0.9,2,1.1,3
		s0.4,2,0.4,3s0.1,1.8,0.1,2.5V175.3z M440.4,111.5h-4.9V69.7c0-1.6-0.1-3.7-0.4-6.2c-0.3-2.5-1-4.9-2.3-7.1
		c-1.2-2.3-3.1-4.2-5.7-5.9c-2.5-1.6-6-2.4-10.5-2.4c-3.8,0-7.1,0.7-10,2.1c-2.9,1.4-5.4,3.3-7.5,5.7s-3.6,5.4-4.7,8.7
		c-1.1,3.4-1.6,7.1-1.6,11.1v35.8H388V45.4h4.9v14.2h0.3c0.9-2.5,2.1-4.7,3.7-6.6c1.6-1.9,3.4-3.6,5.5-5s4.4-2.4,6.9-3.1
		c2.5-0.7,5-1,7.6-1c3.9,0,7.1,0.5,9.8,1.4c2.7,0.9,4.9,2.2,6.6,3.7s3.1,3.3,4.1,5.2s1.7,3.9,2.1,5.9s0.7,3.9,0.8,5.7
		c0.1,1.8,0.1,3.5,0.1,4.8V111.5z M497.5,159.8H482v15.5h-2.5v-15.5H464v-2.5h15.5v-15.5h2.5v15.5h15.5V159.8z M510.2,77.8
		c0,0.6-0.1,1-0.1,1.4h-53.5V80c0,3.9,0.5,7.5,1.5,11.1c1,3.5,2.6,6.6,4.6,9.3c2,2.7,4.6,4.8,7.6,6.3c3.1,1.5,6.6,2.3,10.6,2.3
		c6.6,0,11.9-1.7,15.7-5.2c3.9-3.5,6.5-8.3,8-14.5h4.9c-1.5,7.7-4.6,13.6-9.5,17.8c-4.8,4.1-11.3,6.2-19.2,6.2
		c-4.9,0-9.2-0.9-12.8-2.6c-3.6-1.8-6.7-4.2-9.1-7.2s-4.3-6.6-5.5-10.8c-1.2-4.2-1.8-8.6-1.8-13.4c0-4.6,0.6-9.1,1.9-13.3
		c1.2-4.2,3.1-8,5.6-11.2s5.6-5.8,9.3-7.7c3.7-1.9,8.1-2.9,13.2-2.9c4.6,0,8.7,0.9,12.3,2.6c3.6,1.7,6.5,4.1,8.9,7
		c2.4,3,4.2,6.4,5.5,10.3c1.2,3.9,1.9,8.1,1.9,12.5C510.3,76.7,510.2,77.2,510.2,77.8z M555.7,175.3c-0.6-1.1-1-2.4-1-3.9
		c-0.1-1.5-0.1-3-0.1-4.6s-0.1-3.2-0.2-4.8c-0.1-1.6-0.6-3-1.3-4.2s-1.8-2.2-3.4-3c-1.5-0.8-3.7-1.1-6.5-1.1h-16.9v21.6h-2.9v-47.5
		h19.8c2.1,0,4,0.2,5.9,0.6c1.8,0.4,3.4,1.1,4.8,2.1c1.4,1,2.5,2.2,3.2,3.8c0.8,1.6,1.2,3.5,1.2,5.8c0,3.2-0.9,5.9-2.7,8.1
		c-1.8,2.2-4.3,3.6-7.5,4.1v0.1c2.2,0.3,3.9,0.8,5.2,1.7s2.2,2,2.8,3.3s1,2.7,1.2,4.3s0.3,3.1,0.3,4.7c0,0.9,0,1.8,0,2.7
		s0,1.7,0.1,2.5s0.2,1.5,0.4,2.2s0.5,1.2,0.8,1.7h-3.2L555.7,175.3L555.7,175.3z M593.5,157.8c0,0.3,0,0.5,0,0.7h-27.7v0.4
		c0,2,0.3,3.9,0.8,5.7s1.3,3.4,2.4,4.8c1,1.4,2.4,2.5,3.9,3.3c1.6,0.8,3.4,1.2,5.5,1.2c3.4,0,6.1-0.9,8.1-2.7s3.4-4.3,4.1-7.5h2.5
		c-0.8,4-2.4,7.1-4.9,9.2c-2.5,2.1-5.8,3.2-9.9,3.2c-2.5,0-4.7-0.5-6.6-1.4c-1.9-0.9-3.5-2.2-4.7-3.7c-1.3-1.6-2.2-3.4-2.8-5.6
		c-0.6-2.2-0.9-4.5-0.9-7c0-2.4,0.3-4.7,1-6.9c0.6-2.2,1.6-4.1,2.9-5.8c1.3-1.7,2.9-3,4.8-4c1.9-1,4.2-1.5,6.8-1.5
		c2.4,0,4.5,0.4,6.4,1.3c1.8,0.9,3.4,2.1,4.6,3.6c1.2,1.5,2.2,3.3,2.8,5.3s1,4.2,1,6.5C593.5,157.3,593.5,157.5,593.5,157.8z
		 M592.8,48.6c-1.8-0.3-3.1-0.5-4.1-0.5c-3,0-5.8,0.5-8.3,1.5s-4.7,2.6-6.6,4.6c-1.8,2.1-3.3,4.6-4.3,7.7c-1,3-1.5,6.5-1.5,10.5
		v39.1h-4.9V66.3c0-4.1-0.6-7.4-1.9-9.8c-1.2-2.4-2.7-4.3-4.4-5.5s-3.4-2-5.1-2.3c-1.8-0.3-3.2-0.5-4.2-0.5c-2.3,0-4.7,0.5-7.2,1.4
		s-4.8,2.4-6.8,4.4c-2.1,2-3.7,4.5-5,7.6s-1.9,6.7-1.9,10.9v39.1h-4.9V45.4h4.9v13.5h0.3c0.5-2.1,1.4-4,2.7-5.9
		c1.3-1.8,2.9-3.5,4.7-4.8c1.8-1.4,3.9-2.4,6.2-3.2s4.7-1.2,7.1-1.2c3.2,0,5.9,0.4,8.2,1.2s4.3,1.9,5.9,3.2c1.6,1.3,2.9,2.8,3.9,4.5
		c0.9,1.7,1.6,3.4,1.9,5.1h0.3c2-4.6,4.6-8.1,7.9-10.5c3.3-2.4,7.7-3.5,13.1-3.5c3,0,5.8,0.5,8.3,1.4s4.7,2.3,6.6,4.1
		c1.8,1.8,3.3,4.2,4.3,7s1.5,6.2,1.5,10v45.2h-4.9V66.3c0-4.2-0.6-7.5-1.9-9.9c-1.3-2.4-2.8-4.2-4.6-5.5
		C596.3,49.6,594.5,48.9,592.8,48.6z M624,171.2c-0.8,1.2-1.9,2.2-3.2,2.9s-2.7,1.2-4.3,1.5s-3.1,0.4-4.6,0.4c-2,0-3.8-0.3-5.4-0.8
		c-1.7-0.5-3.1-1.3-4.4-2.3c-1.2-1-2.2-2.3-2.9-3.8s-1.1-3.3-1.1-5.3h2.5c0.1,1.6,0.4,3,1.1,4.2c0.6,1.2,1.4,2.3,2.4,3.1
		c1,0.9,2.2,1.5,3.5,2c1.3,0.4,2.8,0.7,4.3,0.7c1.1,0,2.3-0.1,3.6-0.3s2.4-0.6,3.5-1.1s2-1.3,2.7-2.2c0.7-1,1.1-2.2,1.1-3.6
		c0-1.9-0.6-3.3-1.7-4.3c-1.2-1-2.6-1.7-4.4-2.3c-1.8-0.5-3.6-1-5.7-1.3c-2-0.3-3.9-0.8-5.7-1.5s-3.2-1.6-4.4-2.8s-1.7-3-1.7-5.4
		c0-1.7,0.4-3.1,1.1-4.2c0.8-1.1,1.7-2,2.9-2.7s2.5-1.1,4-1.4c1.5-0.3,2.9-0.4,4.4-0.4c1.8,0,3.4,0.2,5,0.6c1.6,0.4,2.9,1,4,1.9
		s2,2,2.7,3.4c0.6,1.4,1,3,1,5h-2.5c0-1.6-0.3-2.9-0.8-4s-1.2-2-2.1-2.7c-0.9-0.7-2-1.2-3.2-1.5s-2.6-0.5-4-0.5
		c-1.2,0-2.3,0.1-3.5,0.3s-2.2,0.6-3.2,1.1c-0.9,0.5-1.7,1.2-2.3,2.1c-0.6,0.8-0.9,1.9-0.9,3.1c0,1.4,0.3,2.5,1,3.3s1.5,1.5,2.6,2
		s2.3,0.9,3.7,1.2s2.7,0.6,4.1,0.9c1.7,0.3,3.3,0.7,4.8,1.1c1.5,0.4,2.8,1,3.9,1.7s1.9,1.7,2.6,2.8c0.6,1.2,0.9,2.6,0.9,4.4
		C625.3,168.5,624.9,170,624,171.2z M660,157.8c0,0.3,0,0.5,0,0.7h-27.7v0.4c0,2,0.3,3.9,0.8,5.7s1.3,3.4,2.4,4.8
		c1,1.4,2.4,2.5,3.9,3.3c1.6,0.8,3.4,1.2,5.5,1.2c3.4,0,6.1-0.9,8.1-2.7s3.4-4.3,4.1-7.5h2.5c-0.8,4-2.4,7.1-4.9,9.2
		c-2.5,2.1-5.8,3.2-9.9,3.2c-2.5,0-4.7-0.5-6.6-1.4c-1.9-0.9-3.5-2.2-4.7-3.7c-1.3-1.6-2.2-3.4-2.8-5.6c-0.6-2.2-0.9-4.5-0.9-7
		c0-2.4,0.3-4.7,1-6.9c0.6-2.2,1.6-4.1,2.9-5.8c1.3-1.7,2.9-3,4.8-4c1.9-1,4.2-1.5,6.8-1.5c2.4,0,4.5,0.4,6.4,1.3
		c1.8,0.9,3.4,2.1,4.6,3.6c1.2,1.5,2.2,3.3,2.8,5.3s1,4.2,1,6.5C660.1,157.3,660.1,157.5,660,157.8z M658.9,108.7
		c-2.1,1.4-4.5,2.4-7.1,3.2c-2.7,0.8-5.6,1.2-8.7,1.2c-7,0-12.5-1.5-16.3-4.6s-5.8-7.7-5.8-14.1c0-3.9,0.8-7,2.3-9.5
		s3.5-4.4,5.9-5.8s5-2.4,7.8-3c2.9-0.6,5.6-1,8.3-1.3l7.6-0.6c3.5-0.3,6.3-0.7,8.3-1.2c2-0.6,3.5-1.3,4.6-2.3c1-1,1.7-2.3,1.9-3.8
		c0.3-1.5,0.4-3.5,0.4-5.8c0-1.8-0.3-3.5-1-5s-1.8-2.9-3.2-4.1c-1.5-1.2-3.3-2.1-5.7-2.8c-2.3-0.7-5.1-1-8.5-1
		c-5.9,0-10.7,1.5-14.3,4.4s-5.6,7.3-6,13.3h-4.9c0.3-7.3,2.7-12.8,7-16.4C635.8,45.9,642,44,650,44s13.8,1.6,17.4,4.7
		c3.6,3.1,5.5,7.2,5.5,12.3v38.5c0,0.9,0,1.9,0.1,2.8c0,0.9,0.2,1.8,0.5,2.6c0.3,0.8,0.7,1.4,1.3,1.9s1.5,0.7,2.6,0.7
		c0.9,0,2.1-0.1,3.6-0.4v4.1c-1.3,0.3-2.6,0.5-4,0.5c-2,0-3.5-0.3-4.7-0.8s-2-1.2-2.6-2.1s-1-1.9-1.2-3c-0.2-1.2-0.3-2.4-0.3-3.8
		v-3.5h-0.3c-0.8,2-1.9,3.8-3.3,5.6C662.8,105.8,661,107.3,658.9,108.7z M695.3,175c-0.7,0.2-1.4,0.3-2.1,0.3c-1,0-1.8-0.1-2.4-0.4
		c-0.6-0.3-1.1-0.6-1.4-1.1c-0.3-0.4-0.5-1-0.6-1.6s-0.2-1.3-0.2-2v-1.8h-0.1c-0.4,1-1,2-1.7,2.9c-0.8,0.9-1.7,1.7-2.8,2.4
		s-2.3,1.3-3.7,1.7s-2.9,0.6-4.5,0.6c-3.6,0-6.5-0.8-8.5-2.4c-2-1.6-3-4-3-7.3c0-2,0.4-3.6,1.2-4.9s1.8-2.3,3-3s2.6-1.3,4.1-1.6
		s2.9-0.5,4.3-0.7l3.9-0.3c1.8-0.1,3.2-0.3,4.3-0.6c1-0.3,1.8-0.7,2.4-1.2c0.5-0.5,0.9-1.2,1-2s0.2-1.8,0.2-3c0-0.9-0.2-1.8-0.5-2.6
		c-0.4-0.8-0.9-1.5-1.7-2.1s-1.7-1.1-2.9-1.5s-2.7-0.5-4.4-0.5c-3.1,0-5.5,0.8-7.4,2.3s-2.9,3.8-3.1,6.9h-2.5
		c0.2-3.8,1.4-6.6,3.6-8.5c2.2-1.9,5.4-2.8,9.5-2.8s7.1,0.8,9,2.4c1.9,1.6,2.8,3.7,2.8,6.4v20c0,0.5,0,1,0,1.5s0.1,0.9,0.2,1.3
		c0.1,0.4,0.4,0.7,0.7,1c0.3,0.2,0.8,0.4,1.3,0.4c0.4,0,1.1-0.1,1.9-0.2v2L695.3,175L695.3,175z M695.3,64.1
		c-0.6,1.5-1.1,3.1-1.4,4.9c-0.3,1.8-0.6,3.9-0.6,6.4v36.2h-4.9V45.4h4.9v14.7h0.4c0.6-2.1,1.7-4.2,3.3-6c1.6-1.9,3.5-3.5,5.8-4.9
		s4.8-2.4,7.6-3.2c2.8-0.7,5.7-1,8.7-1v4.9c-2.6-0.3-5.5-0.1-8.8,0.8c-3.3,0.9-6.5,2.7-9.5,5.7c-1.2,1.3-2.3,2.5-3.2,3.7
		C696.6,61.3,695.9,62.6,695.3,64.1z M715,143.4c-1.3-0.2-2.9,0-4.6,0.4c-1.7,0.4-3.3,1.4-4.9,2.9c-0.6,0.7-1.2,1.3-1.6,1.9
		c-0.5,0.6-0.9,1.3-1.2,2.1s-0.6,1.6-0.7,2.5c-0.2,0.9-0.3,2-0.3,3.3v18.7h-2.5V141h2.5v7.6h0.2c0.3-1.1,0.9-2.2,1.7-3.1
		c0.8-1,1.8-1.8,3-2.5s2.5-1.3,3.9-1.6c1.4-0.4,2.9-0.5,4.5-0.5L715,143.4L715,143.4z M743.9,168.7c-0.8,1.6-1.9,2.9-3.2,4
		s-2.8,1.9-4.4,2.5c-1.6,0.6-3.4,0.9-5.2,0.9c-2.8,0-5.2-0.5-7.2-1.5s-3.6-2.3-4.9-4c-1.3-1.7-2.2-3.6-2.8-5.8s-0.9-4.5-0.9-6.9
		s0.3-4.7,1-6.8s1.7-4,3-5.6s3-2.9,4.9-3.8s4.2-1.4,6.7-1.4c1.9,0,3.6,0.2,5.2,0.7c1.6,0.5,3.1,1.2,4.3,2.1s2.3,2.1,3.1,3.6
		c0.8,1.4,1.3,3.1,1.5,5h-2.5c-0.1-1.5-0.5-2.8-1.2-4c-0.6-1.2-1.5-2.1-2.5-2.9c-1-0.8-2.2-1.3-3.6-1.7c-1.4-0.4-2.8-0.6-4.4-0.6
		c-2.1,0-4,0.4-5.7,1.3c-1.6,0.9-3,2-4.1,3.5c-1.1,1.4-2,3.1-2.5,4.9c-0.6,1.8-0.9,3.7-0.9,5.7c0,2.3,0.3,4.4,0.8,6.4
		s1.4,3.6,2.5,5.1c1.1,1.4,2.5,2.6,4.1,3.4c1.6,0.8,3.6,1.2,5.8,1.2c1.6,0,3.1-0.3,4.4-0.8s2.6-1.3,3.6-2.2s1.9-2.1,2.6-3.4
		c0.7-1.3,1.1-2.7,1.3-4.3h2.5C745.2,165.3,744.7,167.1,743.9,168.7z M778.5,175.3H776v-21.6c0-0.8-0.1-1.9-0.2-3.2
		c-0.1-1.3-0.5-2.5-1.2-3.7c-0.6-1.2-1.6-2.2-2.9-3c-1.3-0.8-3.1-1.3-5.4-1.3c-2,0-3.7,0.4-5.2,1.1c-1.5,0.7-2.8,1.7-3.9,3
		s-1.9,2.8-2.4,4.5c-0.6,1.8-0.8,3.7-0.8,5.8v18.5h-2.5v-47.5h2.5v20.6h0.1c0.4-1.3,1.1-2.4,1.9-3.4c0.8-1,1.8-1.9,2.9-2.6
		c1.1-0.7,2.3-1.2,3.6-1.6c1.3-0.4,2.6-0.5,3.9-0.5c2,0,3.7,0.2,5.1,0.7c1.4,0.5,2.5,1.1,3.4,1.9c0.9,0.8,1.6,1.7,2.1,2.7
		s0.9,2,1.1,3c0.2,1,0.4,2,0.4,3s0.1,1.8,0.1,2.5L778.5,175.3L778.5,175.3z M772.4,111.5l-28.2-37.7l-15.1,12.7v25h-4.9V19.7h4.9
		v60.9L770,45.4h7.1l-28.9,24.7l31,41.4C779.2,111.5,772.4,111.5,772.4,111.5z"/>
	<path class="st0" d="M667.9,74c-1.2,1.5-3,2.4-5.5,3s-5.2,0.9-8.2,1.2L646,79c-2.4,0.3-4.8,0.6-7.2,1.1s-4.6,1.3-6.5,2.4
		s-3.5,2.6-4.7,4.6c-1.2,1.9-1.8,4.4-1.8,7.5c0,4.9,1.5,8.5,4.6,10.9s7.3,3.5,12.7,3.5c5.6,0,10-1,13.3-3s5.7-4.3,7.5-6.9
		c1.7-2.6,2.8-5.1,3.3-7.6c0.5-2.4,0.7-4.1,0.7-5L667.9,74L667.9,74z"/>
	<path class="st0" d="M681.6,158l-4.3,0.4c-1.2,0.1-2.5,0.3-3.7,0.6c-1.2,0.2-2.4,0.7-3.4,1.2c-1,0.6-1.8,1.4-2.4,2.4
		c-0.6,1-0.9,2.3-0.9,3.9c0,2.5,0.8,4.4,2.4,5.6c1.6,1.2,3.8,1.8,6.6,1.8c2.9,0,5.2-0.5,6.9-1.6c1.7-1,3-2.2,3.9-3.6
		c0.9-1.4,1.5-2.7,1.7-3.9c0.2-1.3,0.4-2.1,0.4-2.6v-6.4c-0.6,0.8-1.6,1.3-2.8,1.5C684.5,157.6,683.1,157.8,681.6,158z"/>
</g>
<rect class="st1" width="800" height="200"/>
</svg>
